<svg width="210mm" height="297mm" version="1.1" viewBox="0 0 210 297" xmlns="http://www.w3.org/2000/svg" xmlns:xlink="http://www.w3.org/1999/xlink">
 <defs>
  <linearGradient id="a" x1="22.404" x2="200.92" y1="84.969" y2="84.969" gradientUnits="userSpaceOnUse">
   <stop stop-color="#800000" offset="0"/>
   <stop stop-color="#800000" stop-opacity="0" offset="1"/>
  </linearGradient>
 </defs>
 <path d="m184.34-21.464c-2.2286 0.02422-4.2365 2.4969-5.364 9.6377-3.608 22.85-26.759 19.242-26.759 19.242l-15.935-15.033-18.785 2.3436-12.236 19.437-11.261 28.86-46.328-22.249c-9.2135 0-17.806 19.745-17.834 28.958 0 0 46.929 59.649 8.1179 96.564-38.811 36.915 3.8321 49.354 32.266 37.978 9.7925 26.507 64.694-29.465 64.694-29.465 8.9809-2.0576 16.631-7.4175 16.631-16.631v-88.446c0-2.9399 1.6608-8.6612 2.8939-14.543 2.6-0.01352 6.3453 2.3887 13.11 6.2017 16.536 9.3205 33.373-21.347 33.373-21.347l-5.7123-29.766s-5.9689-11.795-10.872-11.742z" fill="url(#a)" stroke-width=".28632"/>
</svg>
